# Blender v2.79 (sub 0) OBJ File: 'tree.blend'
# www.blender.org
mtllib tree.mtl
o Cylinder_Cylinder.001
v 0.000000 0.000000 -0.500000
v 0.000000 4.000000 -0.500000
v 0.222521 0.000000 -0.450484
v 0.222521 4.000000 -0.450484
v 0.400969 0.000000 -0.311745
v 0.400969 4.000000 -0.311745
v 0.500000 0.000000 -0.111260
v 0.500000 4.000000 -0.111260
v 0.500000 0.000000 0.111260
v 0.500000 4.000000 0.111260
v 0.400969 0.000000 0.311745
v 0.400969 4.000000 0.311745
v 0.222521 0.000000 0.450484
v 0.222521 4.000000 0.450484
v 0.000000 0.000000 0.500000
v 0.000000 4.000000 0.500000
v -0.222521 0.000000 0.450484
v -0.222521 4.000000 0.450484
v -0.400969 0.000000 0.311745
v -0.400969 4.000000 0.311745
v -0.500000 0.000000 0.111261
v -0.500000 4.000000 0.111261
v -0.500000 0.000000 -0.111261
v -0.500000 4.000000 -0.111261
v -0.400969 0.000000 -0.311745
v -0.400969 4.000000 -0.311745
v -0.222521 0.000000 -0.450485
v -0.222521 4.000000 -0.450485
v 0.093598 3.093312 0.787951
v 0.817206 3.646092 1.313677
v -0.182790 3.646092 1.638601
v -0.800828 3.646096 0.787951
v -0.182790 3.646092 -0.062698
v 0.817206 3.646092 0.262226
v 0.369986 4.540532 1.638601
v -0.630009 4.540531 1.313677
v -0.630009 4.540531 0.262226
v 0.369986 4.540532 -0.062698
v 0.988024 4.540527 0.787951
v 0.093598 5.093312 0.787951
v -0.068857 3.242657 1.287947
v 0.518921 3.242658 1.096963
v 0.356467 3.567574 1.596963
v 0.944246 3.567576 0.787951
v 0.518921 3.242658 0.478940
v -0.432132 3.242660 0.787951
v -0.594591 3.567575 1.287948
v -0.068857 3.242657 0.287956
v -0.594591 3.567575 0.287954
v 0.356467 3.567574 -0.021060
v 1.044656 4.093312 1.096964
v 1.044656 4.093312 0.478939
v 0.093598 4.093312 1.787951
v 0.681384 4.093312 1.596968
v -0.857460 4.093312 1.096964
v -0.494187 4.093312 1.596968
v -0.494187 4.093312 -0.021065
v -0.857460 4.093312 0.478939
v 0.681384 4.093312 -0.021065
v 0.093598 4.093312 -0.212049
v 0.781788 4.619048 1.287948
v -0.169271 4.619050 1.596963
v -0.757050 4.619048 0.787951
v -0.169271 4.619050 -0.021060
v 0.781788 4.619048 0.287954
v 0.256054 4.943966 1.287947
v 0.619328 4.943964 0.787951
v -0.331724 4.943966 1.096963
v -0.331724 4.943966 0.478940
v 0.256054 4.943966 0.287956
v -0.826446 2.934046 -0.191245
v -0.102839 3.486826 0.334481
v -1.102834 3.486826 0.659405
v -1.720873 3.486830 -0.191245
v -1.102834 3.486826 -1.041894
v -0.102839 3.486826 -0.716970
v -0.550058 4.381266 0.659405
v -1.550054 4.381266 0.334481
v -1.550054 4.381266 -0.716970
v -0.550058 4.381266 -1.041894
v 0.067980 4.381261 -0.191245
v -0.826446 4.934046 -0.191245
v -0.988902 3.083391 0.308751
v -0.401124 3.083392 0.117767
v -0.563577 3.408308 0.617767
v 0.024202 3.408310 -0.191245
v -0.401124 3.083392 -0.500256
v -1.352176 3.083394 -0.191245
v -1.514636 3.408309 0.308752
v -0.988902 3.083391 -0.691240
v -1.514636 3.408309 -0.691242
v -0.563577 3.408308 -1.000256
v 0.124612 3.934046 0.117768
v 0.124612 3.934046 -0.500257
v -0.826446 3.934046 0.808755
v -0.238661 3.934046 0.617772
v -1.777504 3.934046 0.117768
v -1.414232 3.934046 0.617772
v -1.414232 3.934046 -1.000261
v -1.777504 3.934046 -0.500257
v -0.238661 3.934046 -1.000261
v -0.826446 3.934046 -1.191245
v -0.138257 4.459782 0.308752
v -1.089315 4.459784 0.617767
v -1.677094 4.459782 -0.191245
v -1.089315 4.459784 -1.000256
v -0.138257 4.459782 -0.691242
v -0.663991 4.784700 0.308751
v -0.300716 4.784698 -0.191245
v -1.251769 4.784700 0.117767
v -1.251769 4.784700 -0.500256
v -0.663991 4.784700 -0.691240
v 0.385430 2.788106 -0.691343
v 1.109037 3.340887 -0.165618
v 0.109042 3.340887 0.159306
v -0.508996 3.340891 -0.691343
v 0.109042 3.340887 -1.541992
v 1.109037 3.340887 -1.217068
v 0.661818 4.235326 0.159306
v -0.338177 4.235326 -0.165618
v -0.338177 4.235326 -1.217068
v 0.661818 4.235326 -1.541992
v 1.279856 4.235322 -0.691343
v 0.385430 4.788106 -0.691343
v 0.222974 2.937452 -0.191348
v 0.810753 2.937452 -0.382332
v 0.648299 3.262369 0.117669
v 1.236078 3.262371 -0.691343
v 0.810753 2.937452 -1.000354
v -0.140300 2.937455 -0.691343
v -0.302759 3.262370 -0.191346
v 0.222974 2.937452 -1.191338
v -0.302759 3.262370 -1.191340
v 0.648299 3.262369 -1.500355
v 1.336488 3.788106 -0.382330
v 1.336488 3.788106 -1.000356
v 0.385430 3.788106 0.308657
v 0.973216 3.788106 0.117674
v -0.565628 3.788106 -0.382330
v -0.202356 3.788106 0.117674
v -0.202356 3.788106 -1.500360
v -0.565628 3.788106 -1.000356
v 0.973216 3.788106 -1.500360
v 0.385430 3.788106 -1.691343
v 1.073619 4.313843 -0.191346
v 0.122561 4.313844 0.117669
v -0.465218 4.313842 -0.691343
v 0.122561 4.313844 -1.500355
v 1.073619 4.313843 -1.191340
v 0.547886 4.638761 -0.191348
v 0.911160 4.638758 -0.691343
v -0.039893 4.638761 -0.382332
v -0.039893 4.638761 -1.000354
v 0.547886 4.638761 -1.191338
vt 0.023415 0.481796
vt 0.000000 0.000128
vt 0.023415 0.000016
vt 0.711122 0.481972
vt 0.687359 0.000048
vt 0.711122 0.000549
vt 0.687359 0.481471
vt 0.660390 0.000000
vt 0.660390 0.481422
vt 0.635556 0.000414
vt 0.187518 0.481780
vt 0.169207 0.000165
vt 0.187518 0.000000
vt 0.169207 0.481945
vt 0.144102 0.000248
vt 0.144102 0.482027
vt 0.117175 0.000232
vt 0.117175 0.482011
vt 0.093759 0.000120
vt 0.635556 0.481422
vt 0.611793 0.000501
vt 0.635556 0.000000
vt 0.611793 0.481924
vt 0.584824 0.000549
vt 0.584824 0.481972
vt 0.559990 0.000135
vt 0.093759 0.482027
vt 0.075448 0.000083
vt 0.093759 0.000248
vt 0.988286 0.097774
vt 0.893431 0.097774
vt 0.914538 0.005964
vt 0.075448 0.481862
vt 0.050342 0.000000
vt 0.050342 0.481780
vt 0.893431 0.143124
vt 0.988286 0.143124
vt 0.967179 0.234934
vt 0.000000 0.481908
vt 0.635556 0.481837
vt 0.093759 0.481899
vt 0.559990 0.481558
vt 0.967179 0.005964
vt 0.988286 0.022675
vt 1.000000 0.046823
vt 1.000000 0.073626
vt 0.967179 0.114485
vt 0.940858 0.120449
vt 0.914538 0.114485
vt 0.881717 0.073626
vt 0.881717 0.046823
vt 0.893431 0.022675
vt 0.940858 0.000000
vt 0.914538 0.234934
vt 0.893431 0.218223
vt 0.881717 0.194075
vt 0.881717 0.167272
vt 0.914538 0.126413
vt 0.940858 0.120449
vt 0.967179 0.126413
vt 1.000000 0.167272
vt 1.000000 0.194075
vt 0.988286 0.218223
vt 0.940858 0.240898
vt 0.476703 0.299922
vt 0.425229 0.335537
vt 0.425229 0.262783
vt 0.389130 0.360515
vt 0.444890 0.394689
vt 0.496365 0.241353
vt 0.540329 0.300865
vt 0.496364 0.359074
vt 0.358113 0.759366
vt 0.304953 0.768325
vt 0.346510 0.706433
vt 0.616237 0.715091
vt 0.675082 0.737928
vt 0.611574 0.774831
vt 0.835087 0.152538
vt 0.770127 0.164408
vt 0.801149 0.099145
vt 0.243763 0.845681
vt 0.290276 0.808454
vt 0.302609 0.874155
vt 0.240781 0.756870
vt 0.187518 0.762870
vt 0.204965 0.701595
vt 0.724282 0.776782
vt 0.726256 0.839889
vt 0.675081 0.811092
vt 0.559991 0.744957
vt 0.870114 0.097678
vt 0.239101 0.910416
vt 0.277545 0.704966
vt 0.616235 0.839566
vt 0.662748 0.876793
vt 0.591618 0.881136
vt 0.323917 0.400557
vt 0.373754 0.441097
vt 0.310128 0.442041
vt 0.202894 0.440600
vt 0.258654 0.406426
vt 0.238993 0.465577
vt 0.243765 0.970156
vt 0.302610 0.947319
vt 0.290277 1.000000
vt 0.311483 0.651573
vt 0.246523 0.639703
vt 0.296317 0.600836
vt 0.310128 0.559761
vt 0.238993 0.538332
vt 0.290467 0.501192
vt 0.258654 0.596901
vt 0.202893 0.564378
vt 0.187518 0.502717
vt 0.351810 0.908465
vt 0.353784 0.963739
vt 0.828557 0.035786
vt 0.764385 0.047241
vt 0.772918 0.000000
vt 0.354093 0.500249
vt 0.559990 0.818121
vt 0.373754 0.558819
vt 0.323917 0.600836
vt 0.188004 0.645837
vt 0.881717 0.044745
vt 0.728569 0.102516
vt 0.711122 0.041241
vt 0.358113 0.642076
vt 0.187519 0.940290
vt 0.187518 0.867126
vt 0.353784 0.845357
vt 0.881717 0.162034
vt 0.711608 0.158274
vt 0.559990 0.360017
vt 0.510153 0.400557
vt 0.219146 0.804111
vt 0.559990 0.242296
vt 0.510153 0.200279
vt 0.819921 0.203275
vt 0.444890 0.204213
vt 0.389129 0.236736
vt 0.249314 0.804111
vt 0.662749 0.685247
vt 0.373754 0.298398
vt 0.726256 0.721507
vt 0.290467 0.299922
vt 0.238993 0.335537
vt 0.238993 0.262783
vt 0.202894 0.360515
vt 0.258654 0.394689
vt 0.310128 0.241353
vt 0.354093 0.300865
vt 0.310128 0.359074
vt 0.187518 0.640557
vt 0.134358 0.649516
vt 0.175916 0.587624
vt 0.782503 0.715091
vt 0.841348 0.737928
vt 0.777839 0.774831
vt 0.683955 0.634509
vt 0.618995 0.646380
vt 0.650017 0.581117
vt 0.786830 0.523542
vt 0.833343 0.486315
vt 0.845676 0.552016
vt 0.070186 0.638061
vt 0.016923 0.644062
vt 0.034370 0.582786
vt 0.890548 0.776782
vt 0.892522 0.839889
vt 0.841347 0.811092
vt 0.726257 0.744957
vt 0.718983 0.579650
vt 0.782168 0.588277
vt 0.106950 0.586158
vt 0.782501 0.839566
vt 0.829013 0.876792
vt 0.757884 0.881136
vt 0.510153 0.400557
vt 0.559990 0.441097
vt 0.496364 0.442041
vt 0.389130 0.440600
vt 0.444890 0.406426
vt 0.425229 0.465577
vt 0.786832 0.648017
vt 0.845677 0.625180
vt 0.833344 0.677861
vt 0.140888 0.532765
vt 0.075928 0.520894
vt 0.125723 0.482027
vt 0.496365 0.559761
vt 0.425229 0.538332
vt 0.476703 0.501192
vt 0.444890 0.596901
vt 0.389129 0.564378
vt 0.373754 0.502717
vt 0.894877 0.586326
vt 0.896851 0.641601
vt 0.677425 0.517758
vt 0.613253 0.529213
vt 0.621786 0.481972
vt 0.540329 0.500249
vt 0.726256 0.818121
vt 0.559990 0.558819
vt 0.510153 0.600836
vt 0.017409 0.527029
vt 0.730585 0.526717
vt 0.577437 0.584488
vt 0.559990 0.523212
vt 0.187518 0.523268
vt 0.730586 0.618151
vt 0.730585 0.544987
vt 0.896851 0.523219
vt 0.730585 0.644006
vt 0.560476 0.640245
vt 0.373754 0.360017
vt 0.323917 0.400557
vt 0.762213 0.481972
vt 0.373754 0.242296
vt 0.323917 0.200279
vt 0.668790 0.685247
vt 0.258654 0.204213
vt 0.202893 0.236736
vt 0.078719 0.685302
vt 0.829015 0.685247
vt 0.187518 0.298398
vt 0.892522 0.721507
vt 0.476703 0.099644
vt 0.425229 0.135259
vt 0.425229 0.062504
vt 0.389130 0.160236
vt 0.444890 0.194410
vt 0.496365 0.041075
vt 0.540329 0.100587
vt 0.496364 0.158795
vt 0.881717 0.361805
vt 0.828557 0.370764
vt 0.870114 0.308872
vt 0.410031 0.833955
vt 0.468875 0.856792
vt 0.405367 0.893695
vt 0.482078 0.753373
vt 0.417118 0.765244
vt 0.448139 0.699981
vt 0.073168 0.726873
vt 0.119681 0.689646
vt 0.132014 0.755346
vt 0.764385 0.359309
vt 0.711122 0.365309
vt 0.728569 0.304034
vt 0.518076 0.895646
vt 0.520050 0.958753
vt 0.468875 0.929956
vt 0.353784 0.863821
vt 0.517105 0.698514
vt 0.068507 0.791607
vt 0.801149 0.307405
vt 0.410029 0.958429
vt 0.456541 0.995656
vt 0.385412 1.000000
vt 0.323917 0.000000
vt 0.373754 0.040540
vt 0.310128 0.041484
vt 0.202894 0.040043
vt 0.258654 0.005868
vt 0.238993 0.065020
vt 0.073170 0.851347
vt 0.132015 0.828511
vt 0.119682 0.881192
vt 0.835087 0.254012
vt 0.770127 0.242142
vt 0.819921 0.203275
vt 0.310128 0.159204
vt 0.238993 0.137775
vt 0.290467 0.100635
vt 0.258654 0.196344
vt 0.202893 0.163821
vt 0.187518 0.102160
vt 0.181215 0.789657
vt 0.183189 0.844931
vt 0.475548 0.636622
vt 0.411376 0.648077
vt 0.419909 0.600836
vt 0.354093 0.099692
vt 0.353784 0.936985
vt 0.373754 0.158261
vt 0.323917 0.200279
vt 0.711608 0.248276
vt 0.528708 0.645581
vt 0.375560 0.703352
vt 0.358113 0.642076
vt 0.881717 0.244515
vt 0.016924 0.821482
vt 0.016923 0.748317
vt 0.183189 0.726549
vt 0.528708 0.762870
vt 0.358599 0.759109
vt 0.559990 0.159738
vt 0.510153 0.200279
vt 0.048551 0.685302
vt 0.559990 0.042017
vt 0.510153 0.000000
vt 0.466912 0.804111
vt 0.444890 0.003934
vt 0.389129 0.036457
vt 0.772918 0.406550
vt 0.456543 0.804111
vt 0.373754 0.098119
vt 0.520050 0.840371
vn 0.2172 0.0000 -0.9761
vn 0.6138 0.0000 -0.7895
vn 0.8966 0.0000 -0.4429
vn 1.0000 0.0000 0.0000
vn 0.8966 0.0000 0.4429
vn 0.6138 0.0000 0.7895
vn 0.2172 0.0000 0.9761
vn -0.2172 0.0000 0.9761
vn -0.6138 0.0000 0.7895
vn -0.8966 0.0000 0.4429
vn -1.0000 0.0000 0.0000
vn -0.8966 0.0000 -0.4429
vn 0.0000 1.0000 0.0000
vn -0.6138 0.0000 -0.7895
vn -0.2172 0.0000 -0.9761
vn 0.0000 -1.0000 0.0000
vn 0.1024 -0.9435 0.3151
vn 0.7002 -0.6617 0.2680
vn -0.2680 -0.9435 0.1947
vn -0.2680 -0.9435 -0.1947
vn 0.1024 -0.9435 -0.3151
vn 0.9050 -0.3304 0.2680
vn 0.0247 -0.3304 0.9435
vn -0.8897 -0.3304 0.3151
vn -0.5746 -0.3304 -0.7488
vn 0.5346 -0.3304 -0.7779
vn 0.8026 -0.1256 0.5831
vn -0.3066 -0.1256 0.9435
vn -0.9921 -0.1256 0.0000
vn -0.3066 -0.1256 -0.9435
vn 0.8026 -0.1256 -0.5831
vn 0.4089 0.6617 0.6284
vn -0.4713 0.6617 0.5831
vn -0.7002 0.6617 -0.2680
vn 0.0385 0.6617 -0.7488
vn 0.7240 0.6617 -0.1947
vn 0.2680 0.9435 -0.1947
vn 0.4911 0.7947 -0.3568
vn 0.4089 0.6617 -0.6284
vn -0.1024 0.9435 -0.3151
vn -0.1876 0.7947 -0.5773
vn -0.4713 0.6617 -0.5831
vn -0.3313 0.9435 0.0000
vn -0.6071 0.7947 0.0000
vn -0.7002 0.6617 0.2680
vn -0.1024 0.9435 0.3151
vn -0.1876 0.7947 0.5773
vn 0.0385 0.6617 0.7488
vn 0.2680 0.9435 0.1947
vn 0.4911 0.7947 0.3568
vn 0.7240 0.6617 0.1947
vn 0.8897 0.3304 -0.3151
vn 0.7947 0.1876 -0.5773
vn 0.5746 0.3304 -0.7488
vn -0.0247 0.3304 -0.9435
vn -0.3035 0.1876 -0.9342
vn -0.5346 0.3304 -0.7779
vn -0.9050 0.3304 -0.2680
vn -0.9822 0.1876 0.0000
vn -0.9050 0.3304 0.2680
vn -0.5346 0.3304 0.7779
vn -0.3035 0.1876 0.9342
vn -0.0247 0.3304 0.9435
vn 0.5746 0.3304 0.7488
vn 0.7947 0.1876 0.5773
vn 0.8897 0.3304 0.3151
vn 0.3066 0.1256 -0.9435
vn 0.3035 -0.1876 -0.9342
vn 0.0247 -0.3304 -0.9435
vn -0.8026 0.1256 -0.5831
vn -0.7947 -0.1876 -0.5773
vn -0.8897 -0.3304 -0.3151
vn -0.8026 0.1256 0.5831
vn -0.7947 -0.1876 0.5773
vn -0.5746 -0.3304 0.7488
vn 0.3066 0.1256 0.9435
vn 0.3035 -0.1876 0.9342
vn 0.5346 -0.3304 0.7779
vn 0.9921 0.1256 0.0000
vn 0.9822 -0.1876 0.0000
vn 0.9050 -0.3304 -0.2680
vn 0.4713 -0.6617 -0.5831
vn 0.1876 -0.7947 -0.5773
vn -0.0385 -0.6617 -0.7488
vn -0.4089 -0.6617 -0.6284
vn -0.4911 -0.7947 -0.3568
vn -0.7240 -0.6617 -0.1947
vn -0.7240 -0.6617 0.1947
vn -0.4911 -0.7947 0.3568
vn -0.4089 -0.6617 0.6284
vn 0.7002 -0.6617 -0.2680
vn 0.6071 -0.7947 0.0000
vn 0.3313 -0.9435 0.0000
vn -0.0385 -0.6617 0.7488
vn 0.1876 -0.7947 0.5773
vn 0.4713 -0.6617 0.5831
usemtl Brown
s off
f 2/1/1 3/2/1 1/3/1
f 4/4/2 5/5/2 3/6/2
f 6/7/3 7/8/3 5/5/3
f 8/9/4 9/10/4 7/8/4
f 10/11/5 11/12/5 9/13/5
f 12/14/6 13/15/6 11/12/6
f 14/16/7 15/17/7 13/15/7
f 16/18/8 17/19/8 15/17/8
f 18/20/9 19/21/9 17/22/9
f 20/23/10 21/24/10 19/21/10
f 22/25/11 23/26/11 21/24/11
f 24/27/12 25/28/12 23/29/12
f 26/30/13 18/31/13 10/32/13
f 26/33/14 27/34/14 25/28/14
f 28/35/15 1/3/15 27/34/15
f 7/36/16 15/37/16 23/38/16
f 2/1/1 4/39/1 3/2/1
f 4/4/2 6/7/2 5/5/2
f 6/7/3 8/9/3 7/8/3
f 8/9/4 10/40/4 9/10/4
f 10/11/5 12/14/5 11/12/5
f 12/14/6 14/16/6 13/15/6
f 14/16/7 16/18/7 15/17/7
f 16/18/8 18/41/8 17/19/8
f 18/20/9 20/23/9 19/21/9
f 20/23/10 22/25/10 21/24/10
f 22/25/11 24/42/11 23/26/11
f 24/27/12 26/33/12 25/28/12
f 6/43/13 4/44/13 2/45/13
f 2/45/13 28/46/13 26/30/13
f 26/30/13 24/47/13 22/48/13
f 22/48/13 20/49/13 18/31/13
f 18/31/13 16/50/13 10/32/13
f 16/50/13 14/51/13 10/32/13
f 14/51/13 12/52/13 10/32/13
f 10/32/13 8/53/13 6/43/13
f 6/43/13 2/45/13 10/32/13
f 2/45/13 26/30/13 10/32/13
f 26/30/13 22/48/13 18/31/13
f 26/33/14 28/35/14 27/34/14
f 28/35/15 2/1/15 1/3/15
f 27/54/16 1/55/16 3/56/16
f 3/56/16 5/57/16 7/36/16
f 7/36/16 9/58/16 11/59/16
f 11/59/16 13/60/16 15/37/16
f 15/37/16 17/61/16 23/38/16
f 17/61/16 19/62/16 23/38/16
f 19/62/16 21/63/16 23/38/16
f 23/38/16 25/64/16 27/54/16
f 27/54/16 3/56/16 7/36/16
f 7/36/16 11/59/16 15/37/16
f 23/38/16 27/54/16 7/36/16
usemtl Green
f 29/65/17 42/66/17 41/67/17
f 30/68/18 42/66/18 44/69/18
f 29/65/19 41/67/19 46/70/19
f 29/65/20 46/70/20 48/71/20
f 29/65/21 48/71/21 45/72/21
f 30/73/22 44/74/22 51/75/22
f 31/76/23 43/77/23 53/78/23
f 32/79/24 47/80/24 55/81/24
f 33/82/25 49/83/25 57/84/25
f 34/85/26 50/86/26 59/87/26
f 30/88/27 51/89/27 54/90/27
f 31/76/28 53/78/28 56/91/28
f 32/79/29 55/81/29 58/92/29
f 33/82/30 57/84/30 60/93/30
f 34/85/31 59/87/31 52/94/31
f 35/95/32 61/96/32 66/97/32
f 36/98/33 62/99/33 68/100/33
f 37/101/34 63/102/34 69/103/34
f 38/104/35 64/105/35 70/106/35
f 39/107/36 65/108/36 67/109/36
f 67/110/37 70/111/37 40/112/37
f 67/110/38 65/113/38 70/111/38
f 65/113/39 38/114/39 70/111/39
f 70/111/40 69/103/40 40/112/40
f 70/111/41 64/115/41 69/103/41
f 64/105/42 37/116/42 69/117/42
f 69/103/43 68/100/43 40/112/43
f 69/103/44 63/102/44 68/100/44
f 63/118/45 36/119/45 68/120/45
f 68/100/46 66/121/46 40/112/46
f 68/100/47 62/99/47 66/121/47
f 62/122/48 35/95/48 66/97/48
f 66/121/49 67/110/49 40/112/49
f 66/121/50 61/123/50 67/110/50
f 61/123/51 39/124/51 67/110/51
f 52/94/52 65/108/52 39/107/52
f 52/94/53 59/87/53 65/108/53
f 59/87/54 38/125/54 65/108/54
f 60/93/55 64/105/55 38/104/55
f 60/93/56 57/84/56 64/105/56
f 57/84/57 37/116/57 64/105/57
f 58/92/58 63/118/58 37/126/58
f 58/92/59 55/81/59 63/118/59
f 55/81/60 36/119/60 63/118/60
f 56/127/61 62/128/61 36/119/61
f 56/91/62 53/78/62 62/122/62
f 53/78/63 35/95/63 62/122/63
f 54/90/64 61/96/64 35/95/64
f 54/90/65 51/89/65 61/96/65
f 51/75/66 39/107/66 61/129/66
f 59/130/67 60/93/67 38/104/67
f 59/130/68 50/131/68 60/93/68
f 50/131/69 33/82/69 60/93/69
f 57/84/70 58/132/70 37/116/70
f 57/84/71 49/83/71 58/132/71
f 49/133/72 32/79/72 58/92/72
f 55/81/73 56/127/73 36/119/73
f 55/81/74 47/80/74 56/127/74
f 47/80/75 31/134/75 56/127/75
f 53/78/76 54/90/76 35/95/76
f 53/78/77 43/77/77 54/90/77
f 43/77/78 30/88/78 54/90/78
f 51/75/79 52/94/79 39/107/79
f 51/75/80 44/74/80 52/94/80
f 44/74/81 34/85/81 52/94/81
f 45/72/82 50/135/82 34/136/82
f 45/72/83 48/71/83 50/135/83
f 48/137/84 33/82/84 50/131/84
f 48/137/85 49/83/85 33/82/85
f 48/71/86 46/70/86 49/138/86
f 46/70/87 32/139/87 49/138/87
f 46/140/88 47/80/88 32/79/88
f 46/70/89 41/67/89 47/141/89
f 41/67/90 31/142/90 47/141/90
f 44/74/91 45/143/91 34/85/91
f 44/69/92 42/66/92 45/72/92
f 42/66/93 29/65/93 45/72/93
f 41/144/94 43/77/94 31/76/94
f 41/67/95 42/66/95 43/145/95
f 42/146/96 30/88/96 43/77/96
f 71/147/17 84/148/17 83/149/17
f 72/150/18 84/148/18 86/151/18
f 71/147/19 83/149/19 88/152/19
f 71/147/20 88/152/20 90/153/20
f 71/147/21 90/153/21 87/154/21
f 72/155/22 86/156/22 93/157/22
f 73/158/23 85/159/23 95/160/23
f 74/161/24 89/162/24 97/163/24
f 75/164/25 91/165/25 99/166/25
f 76/167/26 92/168/26 101/169/26
f 72/170/27 93/171/27 96/172/27
f 73/158/28 95/160/28 98/173/28
f 74/161/29 97/163/29 100/174/29
f 75/164/30 99/166/30 102/175/30
f 76/167/31 101/169/31 94/176/31
f 77/177/32 103/178/32 108/179/32
f 78/180/33 104/181/33 110/182/33
f 79/183/34 105/184/34 111/185/34
f 80/186/35 106/187/35 112/188/35
f 81/189/36 107/190/36 109/191/36
f 109/192/37 112/193/37 82/194/37
f 109/192/38 107/195/38 112/193/38
f 107/195/39 80/196/39 112/193/39
f 112/193/40 111/185/40 82/194/40
f 112/193/41 106/197/41 111/185/41
f 106/187/42 79/198/42 111/199/42
f 111/185/43 110/182/43 82/194/43
f 111/185/44 105/184/44 110/182/44
f 105/200/45 78/201/45 110/202/45
f 110/182/46 108/203/46 82/194/46
f 110/182/47 104/181/47 108/203/47
f 104/204/48 77/177/48 108/179/48
f 108/203/49 109/192/49 82/194/49
f 108/203/50 103/205/50 109/192/50
f 103/205/51 81/206/51 109/192/51
f 94/176/52 107/190/52 81/189/52
f 94/176/53 101/169/53 107/190/53
f 101/169/54 80/207/54 107/190/54
f 102/175/55 106/187/55 80/186/55
f 102/175/56 99/166/56 106/187/56
f 99/166/57 79/198/57 106/187/57
f 100/174/58 105/200/58 79/208/58
f 100/174/59 97/163/59 105/200/59
f 97/163/60 78/201/60 105/200/60
f 98/209/61 104/210/61 78/201/61
f 98/173/62 95/160/62 104/204/62
f 95/160/63 77/177/63 104/204/63
f 96/172/64 103/178/64 77/177/64
f 96/172/65 93/171/65 103/178/65
f 93/157/66 81/189/66 103/211/66
f 101/212/67 102/175/67 80/186/67
f 101/212/68 92/213/68 102/175/68
f 92/213/69 75/164/69 102/175/69
f 99/166/70 100/214/70 79/198/70
f 99/166/71 91/165/71 100/214/71
f 91/215/72 74/161/72 100/174/72
f 97/163/73 98/209/73 78/201/73
f 97/163/74 89/162/74 98/209/74
f 89/162/75 73/216/75 98/209/75
f 95/160/76 96/172/76 77/177/76
f 95/160/77 85/159/77 96/172/77
f 85/159/78 72/170/78 96/172/78
f 93/157/79 94/176/79 81/189/79
f 93/157/80 86/156/80 94/176/80
f 86/156/81 76/167/81 94/176/81
f 87/154/82 92/217/82 76/218/82
f 87/154/83 90/153/83 92/217/83
f 90/219/84 75/164/84 92/213/84
f 90/219/85 91/165/85 75/164/85
f 90/153/86 88/152/86 91/220/86
f 88/152/87 74/221/87 91/220/87
f 88/222/88 89/162/88 74/161/88
f 88/152/89 83/149/89 89/223/89
f 83/149/90 73/224/90 89/223/90
f 86/156/91 87/225/91 76/167/91
f 86/151/92 84/148/92 87/154/92
f 84/148/93 71/147/93 87/154/93
f 83/226/94 85/159/94 73/158/94
f 83/149/95 84/148/95 85/227/95
f 84/228/96 72/170/96 85/159/96
f 113/229/17 126/230/17 125/231/17
f 114/232/18 126/230/18 128/233/18
f 113/229/19 125/231/19 130/234/19
f 113/229/20 130/234/20 132/235/20
f 113/229/21 132/235/21 129/236/21
f 114/237/22 128/238/22 135/239/22
f 115/240/23 127/241/23 137/242/23
f 116/243/24 131/244/24 139/245/24
f 117/246/25 133/247/25 141/248/25
f 118/249/26 134/250/26 143/251/26
f 114/252/27 135/253/27 138/254/27
f 115/240/28 137/242/28 140/255/28
f 116/243/29 139/245/29 142/256/29
f 117/246/30 141/248/30 144/257/30
f 118/249/31 143/251/31 136/258/31
f 119/259/32 145/260/32 150/261/32
f 120/262/33 146/263/33 152/264/33
f 121/265/34 147/266/34 153/267/34
f 122/268/35 148/269/35 154/270/35
f 123/271/36 149/272/36 151/273/36
f 151/274/37 154/275/37 124/276/37
f 151/274/38 149/277/38 154/275/38
f 149/277/39 122/278/39 154/275/39
f 154/275/40 153/267/40 124/276/40
f 154/275/41 148/279/41 153/267/41
f 148/269/42 121/280/42 153/281/42
f 153/267/43 152/264/43 124/276/43
f 153/267/44 147/266/44 152/264/44
f 147/282/45 120/283/45 152/284/45
f 152/264/46 150/285/46 124/276/46
f 152/264/47 146/263/47 150/285/47
f 146/286/48 119/259/48 150/261/48
f 150/285/49 151/274/49 124/276/49
f 150/285/50 145/287/50 151/274/50
f 145/287/51 123/288/51 151/274/51
f 136/258/52 149/272/52 123/271/52
f 136/258/53 143/251/53 149/272/53
f 143/251/54 122/289/54 149/272/54
f 144/257/55 148/269/55 122/268/55
f 144/257/56 141/248/56 148/269/56
f 141/248/57 121/280/57 148/269/57
f 142/256/58 147/282/58 121/290/58
f 142/256/59 139/245/59 147/282/59
f 139/245/60 120/283/60 147/282/60
f 140/291/61 146/292/61 120/283/61
f 140/255/62 137/242/62 146/286/62
f 137/242/63 119/259/63 146/286/63
f 138/254/64 145/260/64 119/259/64
f 138/254/65 135/253/65 145/260/65
f 135/239/66 123/271/66 145/293/66
f 143/294/67 144/257/67 122/268/67
f 143/294/68 134/295/68 144/257/68
f 134/295/69 117/246/69 144/257/69
f 141/248/70 142/296/70 121/280/70
f 141/248/71 133/247/71 142/296/71
f 133/297/72 116/243/72 142/256/72
f 139/245/73 140/291/73 120/283/73
f 139/245/74 131/244/74 140/291/74
f 131/244/75 115/298/75 140/291/75
f 137/242/76 138/254/76 119/259/76
f 137/242/77 127/241/77 138/254/77
f 127/241/78 114/252/78 138/254/78
f 135/239/79 136/258/79 123/271/79
f 135/239/80 128/238/80 136/258/80
f 128/238/81 118/249/81 136/258/81
f 129/236/82 134/299/82 118/300/82
f 129/236/83 132/235/83 134/299/83
f 132/301/84 117/246/84 134/295/84
f 132/301/85 133/247/85 117/246/85
f 132/235/86 130/234/86 133/302/86
f 130/234/87 116/303/87 133/302/87
f 130/304/88 131/244/88 116/243/88
f 130/234/89 125/231/89 131/305/89
f 125/231/90 115/306/90 131/305/90
f 128/238/91 129/307/91 118/249/91
f 128/233/92 126/230/92 129/236/92
f 126/230/93 113/229/93 129/236/93
f 125/308/94 127/241/94 115/240/94
f 125/231/95 126/230/95 127/309/95
f 126/310/96 114/252/96 127/241/96
